<svg width="39" height="35" viewBox="0 0 39 35" fill="none" xmlns="http://www.w3.org/2000/svg">
<rect y="0.281128" width="38.6435" height="15" fill="#93894A"/>
<path d="M0.605103 15.8539H38.0384C38.3727 15.8539 38.6435 15.5828 38.6435 15.2488V0.605103C38.6435 0.270811 38.3727 0 38.0384 0H0.605103C0.27081 0 0 0.270811 0 0.605103V15.2488C0 15.5828 0.27081 15.8539 0.605103 15.8539ZM1.21021 5.45302V3.55667C3.29734 3.62049 5.1866 4.60581 7.17715 5.64583C9.3926 6.80369 11.6833 8.00107 14.5218 8.13208C14.6873 8.13951 14.8527 8.14323 15.0178 8.14323C18.0953 8.14323 21.1506 6.85738 23.861 5.71572C25.989 4.81955 27.9988 3.97301 29.6541 3.89873C31.6251 3.81262 33.3252 4.45183 34.8272 5.0154C35.666 5.36792 36.5395 5.63029 37.4333 5.79845V8.39783C31.7838 9.63809 18.5195 8.35056 18.3813 8.33705L18.2625 9.54118C18.6403 9.57866 24.5401 10.1517 30.1677 10.1517C32.8646 10.1517 35.4991 10.0197 37.4323 9.63302V10.8301C35.5744 11.0978 28.841 11.9217 22.5168 10.8675C14.7058 9.56583 8.36035 9.1407 1.20919 10.9959V6.94585C3.62589 8.50183 6.54402 8.83747 8.90399 8.94249L8.95802 7.73228C6.53187 7.62524 3.48339 7.2609 1.21021 5.45302ZM3.25513 14.6437C8.92594 12.561 16.6292 13.5794 19.1533 14.3121C19.5652 14.4316 20.043 14.5427 20.5711 14.6437H3.25513ZM34.0448 14.6437C34.7306 14.5063 35.4076 14.3273 36.0718 14.1078L35.6862 12.9611C30.9956 14.5387 22.8318 14.1196 19.4906 13.1495C16.1156 12.1696 7.14035 11.1917 1.21021 14.2182V12.2473C8.30294 10.3455 14.354 10.7352 22.3186 12.0622C24.6833 12.4387 27.0746 12.6214 29.469 12.6082C32.1336 12.6059 34.7944 12.4208 37.4333 12.0551V14.642L34.0448 14.6437ZM14.6356 1.21021H23.4633C23.1584 1.35878 22.8534 1.51141 22.5451 1.66809C20.9345 2.48491 19.2691 3.32773 17.0452 3.71706C14.2493 4.20533 12.9074 3.33955 11.0479 2.14251C10.5812 1.84198 10.0845 1.52458 9.53712 1.20886H12.4495C13.5422 2.07599 14.7923 2.72364 16.1311 3.11601L16.4455 1.94734C15.8201 1.76061 15.2137 1.51377 14.6356 1.21021ZM6.73211 1.21021C8.02099 1.72245 9.24842 2.37651 10.3924 3.15991C11.9592 4.16852 13.3528 5.06571 15.5615 5.06571C16.1288 5.06233 16.6947 5.01 17.2532 4.90937C19.655 4.49032 21.4815 3.56443 23.0925 2.74728C24.7177 1.92269 26.1234 1.21021 27.7257 1.21021H37.4333V4.5771C36.6891 4.40793 35.9601 4.17562 35.255 3.88319C33.724 3.30713 31.8206 2.58891 29.6014 2.68987C27.7301 2.77395 25.625 3.66101 23.393 4.6004C20.5228 5.81061 17.553 7.06235 14.5795 6.92323C12.0078 6.80437 9.83832 5.67014 7.73937 4.5717C5.69951 3.50568 3.5982 2.41028 1.21189 2.34511V1.21021H6.73211ZM24.9129 7.45067L24.6421 6.27119C27.5308 5.60868 31.7139 4.93773 34.6989 6.75L34.0708 7.78395C31.4616 6.20028 27.595 6.83543 24.9129 7.45067ZM0.605103 34.4473H38.0384C38.3727 34.4473 38.6435 34.1765 38.6435 33.8422V19.1988C38.6435 18.8646 38.3727 18.5937 38.0384 18.5937H0.605103C0.27081 18.5937 0 18.8646 0 19.1988V33.8422C0 34.1765 0.27081 34.4473 0.605103 34.4473ZM37.4333 23.442C36.3615 23.544 35.2851 23.5882 34.2086 23.5744L34.1924 24.7846C34.2146 24.7846 34.3423 24.7866 34.5415 24.7866C35.1493 24.7866 36.425 24.7711 37.4333 24.6596V25.5403C31.7324 24.4111 25.0301 25.4116 18.537 26.3868C11.8231 27.3951 5.47665 28.3412 1.21021 26.7285V24.9905C2.42649 25.0618 3.75826 25.0942 5.17376 25.0942C7.96257 25.0942 11.0468 24.9841 14.067 24.8768C17.0712 24.7694 20.1777 24.659 22.9264 24.659V23.4477C20.1558 23.4477 17.0388 23.5585 14.0237 23.6662C9.4706 23.8283 4.77295 23.9954 1.21021 23.781V22.7025C7.80286 20.9389 15.8039 21.8033 22.8848 22.5752C26.5252 22.972 29.8786 23.336 32.7593 23.336C34.3311 23.3664 35.901 23.205 37.4336 22.8551L37.4333 23.442ZM7.01237 28.8103C10.5478 28.8103 14.5654 28.2068 18.7173 27.5835C25.1985 26.61 31.8915 25.6125 37.4336 26.7761V28.2403C32.2771 28.0161 26.4408 29.6034 21.262 31.0149C17.0709 32.1559 13.1117 33.2364 10.0727 33.2364C4.2293 33.2364 1.75419 31.0362 1.21054 30.4655V28.0191C3.09001 28.5894 5.04849 28.8565 7.01237 28.8103ZM1.21054 33.2361V32.0671C1.85617 32.5375 2.5548 32.9298 3.29261 33.2361H1.21054ZM21.5804 32.1822C26.6914 30.789 32.4578 29.2229 37.4336 29.4505V30.4409C32.7603 30.3399 27.2435 32.8045 26.3183 33.2351H17.6105C18.8976 32.914 20.2267 32.552 21.5801 32.1829L21.5804 32.1822ZM29.5484 33.2361C31.7132 32.4598 34.7671 31.5889 37.4336 31.6521V33.2361H29.5484ZM34.8198 19.8029C32.6475 20.6522 30.2349 20.6522 28.0627 19.8029H34.8198ZM25.726 19.8029C27.2256 21.0344 29.3073 21.6571 31.4177 21.6571C33.5082 21.6908 35.5522 21.0395 37.2381 19.8029H37.4333V21.6007C34.0367 22.5691 28.6803 21.9893 23.0145 21.3724C15.938 20.6015 7.95548 19.7395 1.20919 21.4528V19.804L25.726 19.8029ZM9.20182 31.8118C7.42196 31.8365 5.65427 31.5157 3.99631 30.8673L4.45048 29.7453C8.12094 31.2293 12.2456 30.5124 15.7958 29.6156L16.0923 30.789C13.8461 31.411 11.5317 31.7547 9.20182 31.8118ZM18.4023 30.2146L18.0818 29.049C20.3834 28.4351 22.718 27.9536 25.0743 27.6068L25.2394 28.8062C22.9355 29.1446 20.6528 29.6153 18.4026 30.215L18.4023 30.2146Z" fill="white"/>
</svg>
