<svg width="42" height="23" viewBox="0 0 42 23" fill="none" xmlns="http://www.w3.org/2000/svg">
<circle cx="8.63281" cy="14.0245" r="7.75" fill="#93894A"/>
<path d="M33.2594 5.40097H28.8773L29.8657 1.86229C29.9298 1.72734 29.9632 1.57991 29.9632 1.43011C29.9632 0.588375 28.9555 0 27.5129 0C26.2113 0 25.2674 0.479404 25.0947 1.19126L22.0475 5.40063H8.43596C8.39345 5.40097 8.35128 5.40536 8.30978 5.41446C3.68982 5.52074 0 9.29625 0 13.9172C0 18.5385 3.68982 22.314 8.30978 22.4203C8.35128 22.4291 8.39345 22.4338 8.43596 22.4341H33.2614C37.9222 22.3748 41.6693 18.5793 41.6693 13.9182C41.6693 9.25712 37.9222 5.4617 33.2614 5.40232L33.2594 5.40097ZM24.2455 7.07973L24.2303 7.07703L24.1635 7.06387L24.1345 7.05746L24.0687 7.04262L24.0343 7.03384L23.9675 7.0163L23.9273 7.00517L23.8582 6.98459L23.8147 6.97042C23.7914 6.963 23.7684 6.9549 23.7455 6.94647L23.7006 6.92926C23.6777 6.92049 23.6544 6.91104 23.6315 6.9016L23.5856 6.88135C23.563 6.87089 23.5407 6.86044 23.5185 6.8493L23.4726 6.82569C23.4506 6.81388 23.4297 6.80173 23.4088 6.78925C23.3943 6.78048 23.3791 6.77205 23.3653 6.7626C23.3444 6.7491 23.3245 6.7346 23.3042 6.72009C23.2911 6.71031 23.2776 6.7012 23.2651 6.69108C23.2452 6.67522 23.2266 6.65869 23.2084 6.64148C23.1969 6.63136 23.1851 6.62158 23.1737 6.61078C23.1551 6.59223 23.1392 6.57232 23.1217 6.55208C23.1129 6.54196 23.1035 6.53217 23.0954 6.52138C23.0765 6.49608 23.0596 6.46942 23.0441 6.4421C23.0404 6.43501 23.0357 6.42928 23.0316 6.42219C23.0131 6.38677 22.9976 6.34999 22.9854 6.31187C22.9854 6.30749 22.9837 6.30276 22.9824 6.29838C22.9726 6.26531 22.9655 6.23158 22.9608 6.19784L25.6901 2.42907C25.6952 2.43211 25.7019 2.43447 25.707 2.4375C25.8106 2.50059 25.9188 2.55525 26.0312 2.60113C26.0437 2.60619 26.0551 2.61159 26.068 2.61699C26.1958 2.66692 26.3271 2.70875 26.4607 2.74114L26.4951 2.75025C26.6472 2.78601 26.8011 2.81266 26.9563 2.83054L26.9789 2.83358C27.156 2.85315 27.3341 2.86259 27.5126 2.86259C27.6539 2.86259 27.7889 2.85517 27.9228 2.84437H27.9323C28.0784 2.83189 28.2184 2.813 28.3523 2.78803L27.493 5.86249C27.2592 6.81658 25.6223 7.29801 24.3146 7.09255L24.2455 7.07973ZM28.6327 1.42877C28.6182 1.43653 28.6023 1.44395 28.5858 1.45204C28.5632 1.46284 28.5379 1.4733 28.5109 1.48409C28.4839 1.49489 28.4582 1.50535 28.4282 1.51513C28.3678 1.53605 28.3014 1.55562 28.2261 1.5735C28.2066 1.57856 28.1829 1.58193 28.1624 1.58632C28.0949 1.60049 28.0224 1.61263 27.9444 1.62275C27.9151 1.62646 27.8857 1.62984 27.8547 1.63321C27.627 1.6575 27.3969 1.6575 27.1691 1.63321C27.1445 1.63051 27.1199 1.62815 27.0963 1.62512C26.9971 1.61263 26.904 1.59779 26.822 1.57923L26.7943 1.57181C26.7201 1.55427 26.6536 1.5347 26.5943 1.51412C26.5798 1.50906 26.5642 1.50434 26.5504 1.49894C26.4974 1.47971 26.4458 1.45778 26.3956 1.43281L26.3898 1.4291C27.1094 1.13525 27.9157 1.13525 28.6354 1.4291L28.6327 1.42877ZM2.94187 9.19943L3.91687 10.1748L4.77211 9.31987L3.79677 8.34453C6.26565 6.25384 9.81547 6.03523 12.5222 7.80676L12.5377 7.81621C12.7121 7.93125 12.8812 8.0581 13.0475 8.19069C13.0751 8.21262 13.1045 8.23117 13.1318 8.2531C13.5154 8.56618 13.8663 8.91705 14.179 9.30064C14.2016 9.32797 14.2198 9.35766 14.2421 9.38498C14.3737 9.55131 14.5012 9.71999 14.6166 9.89441C14.6193 9.8988 14.6213 9.90318 14.6243 9.90757C16.2167 12.3437 16.2167 15.4914 14.6243 17.9272C14.6216 17.9316 14.6196 17.936 14.6166 17.9404C14.5015 18.1155 14.3747 18.2838 14.2421 18.4501C14.2202 18.4778 14.2016 18.5072 14.179 18.5345C13.8666 18.9177 13.5157 19.2686 13.1325 19.581C13.1001 19.6073 13.0654 19.6296 13.0326 19.6552C12.871 19.7821 12.7077 19.9062 12.5387 20.0179C12.5293 20.0243 12.5185 20.0297 12.5087 20.0358C10.5921 21.2793 8.20486 21.5577 6.05344 20.7881L6.95153 18.6782C8.7433 19.2271 10.6916 18.7426 12.0175 17.4188C12.3903 17.0446 12.702 16.6142 12.9412 16.1432L14.6517 16.7137L15.0346 15.5666L13.3558 15.0063C13.7641 13.2971 13.2566 11.4986 12.0158 10.2544L11.1609 11.1096C12.0863 12.0323 12.4804 13.3616 12.2078 14.6395C11.9352 15.9178 11.033 16.9704 9.81175 17.4353L9.44503 15.7917C10.2153 15.3929 10.6795 14.5791 10.6306 13.7131C10.5816 12.8471 10.0287 12.0907 9.21832 11.7813C8.40795 11.4723 7.49166 11.6676 6.87798 12.2806L7.73355 13.1359C8.12591 12.7611 8.7433 12.7611 9.13566 13.1359C9.52297 13.5228 9.52297 14.151 9.13566 14.538C8.7433 14.9131 8.12524 14.9131 7.73321 14.538C7.63571 14.4415 7.5598 14.3258 7.51021 14.1979L6.38339 14.6372C6.68973 15.4226 7.41845 15.9637 8.25917 16.0298L8.62826 17.6836C7.03486 17.767 5.55481 16.8594 4.90672 15.4013C4.25863 13.9432 4.57677 12.2368 5.70663 11.11L4.85139 10.2547C3.74043 11.3569 3.20367 12.9122 3.39834 14.4651C3.593 16.0177 4.49715 17.3925 5.84562 18.186L4.95092 20.2905C3.0414 19.2308 1.70845 17.3706 1.31912 15.2215C0.929794 13.0728 1.52525 10.863 2.94187 9.20078V9.19943ZM38.8381 18.6306H27.5129V19.8398H37.5285C36.2879 20.7416 34.7934 21.2264 33.2597 21.2247H12.8953C12.9874 21.1693 13.0768 21.109 13.1666 21.0496C13.1851 21.0378 13.2044 21.026 13.2229 21.0135C13.4375 20.8704 13.6463 20.7173 13.8487 20.5536C13.8835 20.5267 13.9149 20.4983 13.9483 20.471C14.1503 20.303 14.3484 20.1275 14.5356 19.9393C14.7407 19.7342 14.9354 19.5189 15.1189 19.2939V19.2922C15.8244 18.4312 16.3524 17.439 16.6725 16.3726H35.2394V15.1635H16.9407C17.0008 14.7509 17.0312 14.3345 17.0308 13.9176C17.0328 12.614 16.7343 11.3272 16.1584 10.1579H34.1372V8.94876H15.431C15.3315 8.81044 15.2293 8.67515 15.1203 8.5429V8.54088C14.9368 8.31619 14.7421 8.10095 14.537 7.89583C14.3484 7.7069 14.15 7.53147 13.9472 7.36278C13.9149 7.33579 13.8831 7.30846 13.8508 7.28215C13.6473 7.11785 13.4378 6.96401 13.2222 6.82063L13.1699 6.78588C13.0792 6.7265 12.9891 6.66544 12.896 6.60943H21.809C21.809 6.61517 21.8134 6.61989 21.8147 6.62495C21.8397 6.71469 21.8717 6.80207 21.9102 6.88641C21.9183 6.90429 21.9257 6.92116 21.9338 6.93904C21.976 7.02541 22.0246 7.10807 22.0796 7.18667C22.0907 7.20253 22.1028 7.21771 22.1143 7.23357C22.1703 7.30914 22.2314 7.381 22.2972 7.44814C22.3039 7.45488 22.3093 7.46197 22.3164 7.46872C22.391 7.54159 22.4706 7.60906 22.5546 7.67114C22.5735 7.68531 22.592 7.69914 22.6113 7.71264C22.7007 7.77572 22.7934 7.83341 22.8896 7.88537C22.9034 7.89279 22.9189 7.89954 22.9328 7.90696C23.0289 7.95689 23.1274 8.00176 23.228 8.04157C23.2475 8.04933 23.2668 8.0581 23.287 8.06553C23.3997 8.10803 23.5185 8.14582 23.6419 8.17922C23.6682 8.18664 23.6949 8.19271 23.7219 8.1998C23.8514 8.23219 23.9847 8.2612 24.1247 8.28347C24.2465 8.3027 24.3703 8.31619 24.4948 8.32665C24.5333 8.32969 24.5717 8.33137 24.6105 8.33373C24.6996 8.33913 24.7887 8.34284 24.8787 8.34386C24.901 8.34386 24.9233 8.34622 24.9455 8.34622C24.9681 8.34622 24.9975 8.34453 25.0235 8.34419C25.0724 8.34419 25.122 8.34217 25.1709 8.33981C25.2296 8.33778 25.2883 8.33441 25.3467 8.33002C25.3929 8.32665 25.4394 8.3226 25.485 8.31822C25.5477 8.31181 25.6098 8.30438 25.6726 8.29595C25.7141 8.29055 25.7556 8.28515 25.7964 8.27841C25.8655 8.26761 25.933 8.25546 26.0008 8.24197C26.0352 8.23489 26.0697 8.22881 26.1044 8.22139C26.1813 8.20486 26.2572 8.18698 26.3331 8.16539C26.3564 8.15931 26.3804 8.15324 26.404 8.14683C26.4937 8.12153 26.5821 8.09353 26.6695 8.06316L26.6948 8.05507C27.4613 7.82667 28.1084 7.30779 28.498 6.60943V6.60707H33.2594C36.6476 6.60437 39.5915 8.93527 40.3657 12.2341H24.2968V13.4432H40.5442C40.5543 13.6001 40.5672 13.7563 40.5672 13.9149C40.5712 15.6425 39.9582 17.3149 38.8381 18.6306ZM9.74934 10.2561C9.36271 10.0978 8.9491 10.0159 8.53143 10.0142L8.53751 8.80504C9.11002 8.80707 9.67681 8.91975 10.2065 9.13634L9.74934 10.2561ZM18.2987 12.2368H21.9446V13.4459H18.2987V12.2368ZM39.2541 15.1635V16.3726H36.7323V15.1635H39.2541ZM22.4281 18.6306H26.1651V19.8398H22.4281V18.6306ZM16.9954 18.6306H19.4187V19.8398H16.9957L16.9954 18.6306Z" fill="white"/>
</svg>
