<svg width="39" height="39" viewBox="0 0 39 39" fill="none" xmlns="http://www.w3.org/2000/svg">
<rect x="0.53125" y="29.3605" width="37.375" height="8.5" fill="#93894A"/>
<path d="M0 0.605157V38.001C0 38.3353 0.270835 38.6061 0.605157 38.6061H38.001C38.3353 38.6061 38.6061 38.3353 38.6061 38.001V29.4994C38.6061 29.1654 38.3353 28.8942 38.001 28.8942H9.71189V0.605157C9.71189 0.270835 9.44106 0 9.10673 0H0.605157C0.270835 0 0 0.270835 0 0.605157H0ZM37.3958 37.3958H36.381V35.964H35.1707V37.3958H34.3217V35.964H33.1114V37.3958H32.2624V35.964H31.0521V37.3958H30.2038V35.964H28.9935V37.3958H28.1445V34.2238H26.9342V37.3958H26.0856V35.964H24.8753V37.3958H24.0266V35.964H22.8163V37.3958H21.966V35.964H20.7557V37.3958H19.9084V34.2238H18.6981V37.3958H17.8508V35.964H16.6405V37.3958H15.7901V35.964H14.5798V37.3958H13.7308V35.964H12.5205V37.3958H11.6719V34.2238H10.4616V37.3958H9.61261V35.964H8.40229V37.3958H7.55332V35.964H6.343V37.3958H5.49437V35.964H4.28405V37.3958H3.43508V34.2238H2.22476V37.3958H1.21031V30.1045H37.3958V37.3958ZM8.50158 1.21031V28.8942H1.21031V28.1445H4.38232V26.9342H1.21031V26.0856H2.64216V24.8753H1.21031V24.0266H2.64216V22.8163H1.21031V21.966H2.64216V20.7557H1.21031V19.9084H4.38232V18.6981H1.21031V17.8508H2.64216V16.6405H1.21031V15.7901H2.64216V14.5798H1.21031V13.7308H2.64216V12.5205H1.21031V11.6719H4.38232V10.4616H1.21031V9.61261H2.64216V8.40229H1.21031V7.55332H2.64216V6.343H1.21031V5.49437H2.64216V4.28405H1.21031V3.43508H4.38232V2.22476H1.21031V1.21031H8.50158ZM2.83026 30.4162C2.02991 30.4162 1.38119 31.0649 1.38119 31.8656C1.38119 32.666 2.02991 33.3147 2.83026 33.3147C3.63094 33.3147 4.27966 32.666 4.27966 31.8656C4.27831 31.0656 3.62993 30.4172 2.82992 30.4159L2.83026 30.4162ZM2.83026 32.1047C2.69855 32.1047 2.5915 31.9977 2.5915 31.866C2.5915 31.7339 2.69855 31.6269 2.83026 31.6269C2.9623 31.6269 3.06935 31.7339 3.06935 31.866C3.06901 31.9977 2.96196 32.1044 2.82992 32.1044L2.83026 32.1047Z" fill="white"/>
</svg>
