<svg width="17" height="15" viewBox="0 0 17 15" fill="none" xmlns="http://www.w3.org/2000/svg">
<path d="M1.02099 8.87369L0.995193 8.86805L12.0517 8.86805L8.57591 12.3515C8.40571 12.5215 8.31234 12.7519 8.31234 12.9937C8.31234 13.2355 8.40571 13.4643 8.57591 13.6347L9.11673 14.1758C9.2868 14.3459 9.51342 14.4399 9.75509 14.4399C9.99689 14.4399 10.2236 14.3466 10.3937 14.1765L16.3518 8.21895C16.5225 8.04821 16.6159 7.82079 16.6152 7.57885C16.6159 7.33557 16.5225 7.10801 16.3518 6.93754L10.3937 0.979447C10.2236 0.809514 9.99702 0.716018 9.75509 0.716018C9.51342 0.716018 9.2868 0.809649 9.11673 0.979447L8.57591 1.52054C8.40571 1.69034 8.31234 1.91709 8.31234 2.15889C8.31234 2.40056 8.40571 2.61536 8.57591 2.78529L12.0909 6.28818L1.00863 6.28817C0.510651 6.28817 0.0922019 6.71737 0.0922019 7.21508L0.0922018 7.98037C0.0922018 8.47808 0.523011 8.87369 1.02099 8.87369Z" fill="black"/>
</svg>
