<svg width="55" height="55" viewBox="0 0 55 55" fill="none" xmlns="http://www.w3.org/2000/svg">
<path d="M23.0284 25.3208C21.7187 25.2335 21.3185 25.8665 21.2821 26.1939C20.6636 27.0671 19.514 29.1408 19.8633 30.4505C20.2998 32.0876 22.2644 33.179 24.3381 34.5978C26.4118 36.0167 27.0666 35.2527 28.4855 33.943C29.9043 32.6333 29.5769 30.0139 28.4855 28.0493C27.394 26.0848 24.6655 25.4299 23.0284 25.3208Z" fill="#EDCD28"/>
<path d="M43.0014 41.2555H10.1498C10.55 42.0922 11.5031 43.8749 12.1143 44.3115C12.7255 44.748 15.2067 44.8572 16.3708 44.8572V48.2406L37.2169 47.6948V44.8572H38.1992C39.1451 44.8208 41.4298 44.4424 43.0014 43.22C44.573 41.9976 43.6563 41.401 43.0014 41.2555Z" fill="#EDCD28"/>
<path d="M36.9922 1.87715L36.351 3.50106C46.0936 7.34404 52.388 16.5929 52.388 27.0671C52.388 41.0296 41.0287 52.388 27.0671 52.388C13.1055 52.388 1.74627 41.0296 1.74627 27.0671C1.74627 19.7687 4.85723 12.9137 10.3045 8.09993L13.6086 17.4627H10.4776V27.9403C10.4776 33.1965 13.3984 37.7796 17.6993 40.1641H9.60447V41.0373C9.60447 43.4444 11.563 45.4029 13.9701 45.4029H15.7164V48.8955H38.4179V45.4029H40.1641C42.5712 45.4029 44.5298 43.4444 44.5298 41.0373V40.1641H31.1962C33.4272 38.9278 35.2779 37.0949 36.5509 34.887C42.4587 34.4973 47.1492 29.5799 47.1492 23.5746V20.9552C47.1492 19.9921 46.366 19.2089 45.4029 19.2089H38.4179V17.4627H19.8288L14.3999 1.95219C13.9902 0.784029 12.8847 0 11.6475 0C10.0393 0 8.73133 1.30799 8.73133 2.91613V3.14251C8.73133 3.47505 8.78718 3.80248 8.89718 4.11328L9.68035 6.33107C3.52749 11.494 0 19.0299 0 27.0671C0 41.9914 12.1416 54.1343 27.0671 54.1343C41.9927 54.1343 54.1343 41.9914 54.1343 27.0671C54.1343 15.872 47.4059 5.98446 36.9922 1.87715ZM36.6716 47.1492H17.4627V45.4029H36.6716V47.1492ZM42.6343 41.9104C42.2736 42.9268 41.3029 43.6567 40.1641 43.6567H13.9701C12.8314 43.6567 11.8606 42.9268 11.5 41.9104H42.6343ZM45.4029 20.9552V23.5746C45.4029 28.3078 41.9577 32.2433 37.4454 33.0273C38.0653 31.4486 38.4179 29.7364 38.4179 27.9403V20.9552H45.4029ZM36.6716 20.9552H32.3059V22.7015H36.6716V27.9403C36.6716 34.681 31.1885 40.1641 24.4477 40.1641C17.707 40.1641 12.2239 34.681 12.2239 27.9403V22.7015H30.5597V20.9552H12.2239V19.2089H36.6716V20.9552ZM10.4776 2.91613C10.4776 2.27108 11.0024 1.74627 11.6475 1.74627C12.1437 1.74627 12.588 2.06133 12.7521 2.52944L17.9777 17.4627H15.4615L10.5441 3.53005C10.4993 3.40599 10.4776 3.27596 10.4776 3.14251V2.91613Z" fill="black"/>
<path d="M27.0226 25.789C26.1588 24.9235 25.0098 24.4478 23.7858 24.4478C21.2624 24.4478 19.2087 26.5014 19.2087 29.0257C19.2087 30.2472 19.6845 31.397 20.5491 32.2625L22.7447 34.4572C23.6093 35.3227 24.7583 35.7985 25.9823 35.7985C28.5058 35.7985 30.5594 33.7448 30.5594 31.2205C30.5594 29.9991 30.0837 28.8492 29.219 27.9838L27.0226 25.789ZM23.9802 33.2226L21.7846 31.0278C21.2491 30.4923 20.955 29.7808 20.955 29.0257C20.955 28.5636 21.0765 28.1334 21.2739 27.7472L23.8302 30.3039L25.0648 29.0692L22.5081 26.5129C22.8944 26.3155 23.3237 26.194 23.7858 26.194C24.5426 26.194 25.2533 26.4882 25.7871 27.0228L27.9835 29.2184C28.519 29.7539 28.8132 30.4655 28.8132 31.2205C28.8132 31.6827 28.6917 32.1128 28.4943 32.4991L26.8111 30.8155L25.5764 32.0502L27.26 33.7333C26.8738 33.9307 26.4445 34.0522 25.9823 34.0522C25.2256 34.0522 24.5149 33.758 23.9802 33.2226Z" fill="black"/>
<path d="M22.7016 5.81685C22.7016 6.38259 22.5149 6.94322 22.1751 7.39556L20.9571 9.01862C20.393 9.7711 20.0822 10.7043 20.0822 11.6457C20.0822 12.8147 20.5371 13.9142 21.3651 14.74L22.9574 16.3337L24.1921 15.099L22.5993 13.5054C22.1086 13.0159 21.8285 12.3381 21.8285 11.6457C21.8285 11.0799 22.0152 10.5193 22.355 10.067L23.573 8.44392C24.1371 7.69144 24.4479 6.75819 24.4479 5.81685C24.4479 4.64784 23.993 3.54832 23.165 2.72251L20.6996 0.255737L19.4649 1.4904L21.9308 3.95717C22.4215 4.44661 22.7016 5.12448 22.7016 5.81685Z" fill="black"/>
<path d="M27.9399 5.81685C27.9399 6.38259 27.7532 6.94322 27.4134 7.39556L26.1954 9.01862C25.6313 9.7711 25.3205 10.7043 25.3205 11.6457C25.3205 12.8147 25.7754 13.9142 26.6034 14.74L28.1957 16.3337L29.4304 15.099L27.8376 13.5054C27.3469 13.0159 27.0668 12.3381 27.0668 11.6457C27.0668 11.0799 27.2536 10.5193 27.5933 10.067L28.8114 8.44392C29.3754 7.69144 29.6862 6.75819 29.6862 5.81685C29.6862 4.64784 29.2313 3.54832 28.4034 2.72251L25.9379 0.255737L24.7032 1.4904L27.1691 3.95717C27.6598 4.44661 27.9399 5.12448 27.9399 5.81685Z" fill="black"/>
<path d="M33.1792 5.81685C33.1792 6.38259 32.9924 6.94322 32.6527 7.39556L31.4346 9.01862C30.8706 9.7711 30.5598 10.7043 30.5598 11.6457C30.5598 12.8147 31.0147 13.9142 31.8426 14.74L33.435 16.3337L34.6696 15.099L33.0769 13.5054C32.5861 13.0159 32.306 12.3381 32.306 11.6457C32.306 11.0799 32.4928 10.5193 32.8326 10.067L34.0506 8.44392C34.6146 7.69144 34.9254 6.75819 34.9254 5.81685C34.9254 4.64784 34.4705 3.54832 33.6426 2.72251L31.1771 0.255737L29.9424 1.4904L32.4084 3.95717C32.8991 4.44661 33.1792 5.12448 33.1792 5.81685Z" fill="black"/>
</svg>
