<svg width="55" height="55" viewBox="0 0 55 55" fill="none" xmlns="http://www.w3.org/2000/svg">
<path d="M48.1437 11.2416L47.5979 8.84047L46.1791 8.07648C45.8517 6.87592 44.4765 4.03824 41.5952 2.29197C37.9935 0.10914 31.6633 1.09142 28.7164 3.05596C26.359 4.6276 25.333 7.56715 25.1148 8.84047H23.3685V12.0056L48.1437 11.2416Z" fill="#EDCD28"/>
<path d="M21.6222 37.5447H25.1148V36.0167H38.5392C42.2063 36.0167 42.1045 38.0541 41.5952 39.0727L42.7957 40.3824C40.2127 40.1277 34.6537 39.7712 33.0821 40.3824C31.5105 40.9936 31.0448 42.6016 31.0084 43.3292L25.1148 42.7835L24.5691 40.9281H21.6222V37.5447Z" fill="#EDCD28"/>
<path d="M48.1437 11.2416L47.5979 8.84047L46.1791 8.07648C45.8517 6.87592 44.4765 4.03824 41.5952 2.29197C37.9935 0.10914 31.6633 1.09142 28.7164 3.05596C26.359 4.6276 25.333 7.56715 25.1148 8.84047H23.3685V12.0056L48.1437 11.2416Z" stroke="black"/>
<path d="M21.6222 37.5447H25.1148V36.0167H38.5392C42.2063 36.0167 42.1045 38.0541 41.5952 39.0727L42.7957 40.3824C40.2127 40.1277 34.6537 39.7712 33.0821 40.3824C31.5105 40.9936 31.0448 42.6016 31.0084 43.3292L25.1148 42.7835L24.5691 40.9281H21.6222V37.5447Z" stroke="black"/>
<path d="M38.4184 20.9552H36.6721C36.6721 21.4363 36.281 21.8283 35.799 21.8283C35.317 21.8283 34.9259 21.4363 34.9259 20.9552H33.1796C33.1796 22.3994 34.3548 23.5746 35.799 23.5746C37.2432 23.5746 38.4184 22.3994 38.4184 20.9552Z" fill="black"/>
<path d="M38.4179 49.7686V46.2761H51.5149C52.959 46.2761 54.1343 45.1008 54.1343 43.6567V37.3395C54.1343 32.4125 48.1655 27.5858 41.6816 27.1134L41.1412 25.492C43.3179 24.0767 44.8555 21.8196 45.2763 19.2089H45.8395C47.5246 19.2089 48.8955 17.6425 48.8955 15.7164C48.8955 14.6686 48.4807 13.7379 47.839 13.097H48.8955V7.8582H47.0828C46.5328 3.92823 42.3251 0 35.7985 0C29.2718 0 25.0642 3.92823 24.5141 7.8582H22.7015V13.097H23.758C23.1162 13.7379 22.7015 14.6686 22.7015 15.7164C22.7015 17.6425 24.0723 19.2089 25.7574 19.2089H26.3206C26.7415 21.8196 28.279 24.0767 30.4558 25.492L29.9144 27.1143C23.5379 27.5997 17.4627 32.6098 17.4627 37.5447V38.4179H13.9701V40.1641H20.9552V41.9104H24.4477V43.6567H30.6836C30.9203 44.5673 31.5123 45.327 32.3059 45.7906V49.7686H34.9253V51.5149C34.9253 51.8222 34.9882 52.1138 35.086 52.388H5.2388V41.9104H6.98507V43.6567H9.96594L12.2239 41.3987V37.1833L9.96594 34.9253H6.98507V36.6716H5.2388V33.1791H6.47341L8.73133 30.9211V26.7057L6.47341 24.4477H5.2388V22.7015H6.47341L8.73133 20.4435V16.2281L6.47341 13.9701H5.2388V12.2239H6.47341L8.73133 9.96594V5.75046L6.47341 3.49253H5.2388V0H0V54.1343H4.36567H5.2388H37.5447H41.9104C43.3546 54.1343 44.5298 52.959 44.5298 51.5149V50.6417C44.5298 50.1606 44.921 49.7686 45.4029 49.7686H54.1343V48.0223H45.4029C43.9588 48.0223 42.7835 49.1976 42.7835 50.6417V51.5149C42.7835 51.996 42.3924 52.388 41.9104 52.388H37.5447C37.0628 52.388 36.6716 51.996 36.6716 51.5149V49.7686H38.4179ZM3.49253 52.388H1.74627V1.74627H3.49253V52.388ZM8.73133 36.6716H9.24299L10.4776 37.9062V40.6758L9.24299 41.9104H8.73133V36.6716ZM6.98507 38.4179V40.1641H5.2388V38.4179H6.98507ZM5.75046 26.194L6.98507 27.4286V30.1982L5.75046 31.4328H5.2388V26.194H5.75046ZM5.75046 15.7164L6.98507 16.951V19.7206L5.75046 20.9552H5.2388V15.7164H5.75046ZM5.75046 5.2388L6.98507 6.47341V9.24299L5.75046 10.4776H5.2388V5.2388H5.75046ZM52.388 43.6567C52.388 44.1378 51.9968 44.5298 51.5149 44.5298H34.0522C33.0891 44.5298 32.3059 43.7466 32.3059 42.7835C32.3059 41.8205 33.0891 41.0373 34.0522 41.0373H52.388V43.6567ZM38.4179 36.6716H39.291C39.3626 36.6716 41.0373 36.7013 41.0373 39.291H38.4179V36.6716ZM41.9104 28.8719C47.3264 29.422 52.388 33.4201 52.388 37.3395V39.291H47.1492V37.5447H45.4029V39.291H42.7835C42.7835 35.8378 40.4994 34.9253 39.291 34.9253H38.4179H37.5447H30.7657L35.7985 32.409L41.9104 35.4649V28.8719ZM31.4328 29.5713L34.0618 31.3245L31.4328 32.6395V29.5713ZM37.5351 31.3245L40.1641 29.5713V32.6386L37.5351 31.3245ZM27.9403 13.097H43.6567V17.4627H38.4179C38.4179 16.0185 37.2426 14.8433 35.7985 14.8433C34.3543 14.8433 33.1791 16.0185 33.1791 17.4627H27.9403V13.097ZM45.8395 17.4627H45.4029V13.9701H45.8395C46.5494 13.9701 47.1492 14.7699 47.1492 15.7164C47.1492 16.6629 46.5494 17.4627 45.8395 17.4627ZM45.3086 7.8582H38.4179V6.11193H40.1641V4.36567H38.4179V2.02043C42.2448 2.82284 44.8197 5.3104 45.3086 7.8582ZM36.6716 1.78032V7.8582H34.9253V1.78032C35.2126 1.76198 35.5016 1.74627 35.7985 1.74627C36.0953 1.74627 36.3843 1.76198 36.6716 1.78032ZM33.1791 2.02043V4.36567H31.4328V6.11193H33.1791V7.8582H26.2883C26.7773 5.3104 29.3521 2.82284 33.1791 2.02043ZM24.4477 9.60447H47.1492V11.3507H24.4477V9.60447ZM24.4477 15.7164C24.4477 14.7699 25.0476 13.9701 25.7574 13.9701H26.194V17.4627H25.7574C25.0476 17.4627 24.4477 16.6629 24.4477 15.7164ZM28.087 19.2089H34.9253V17.4627C34.9253 16.9816 35.3165 16.5895 35.7985 16.5895C36.2804 16.5895 36.6716 16.9816 36.6716 17.4627V19.2089H43.51C42.8097 22.6857 39.6202 25.3209 35.7985 25.3209C31.9768 25.3209 28.7872 22.6857 28.087 19.2089ZM35.7985 27.0671C37.1396 27.0671 38.4152 26.7982 39.5756 26.3162L39.9982 27.584L35.7985 30.3833L31.5987 27.5832L32.0213 26.3154C33.1817 26.7982 34.4573 27.0671 35.7985 27.0671ZM19.2089 38.4179V37.5447C19.2089 33.606 24.3561 29.4517 29.6865 28.8806V34.9253H24.4477V36.6716H20.9552V38.4179H19.2089ZM22.7015 40.1641V38.4179H24.4477V40.1641H22.7015ZM30.6836 41.9104H26.194V36.6716H36.6716V39.291H34.0522C32.429 39.291 31.0739 40.4086 30.6836 41.9104ZM34.0522 46.2761H36.6716V48.0223H34.0522V46.2761Z" fill="black"/>
</svg>
