<svg width="55" height="55" viewBox="0 0 55 55" fill="none" xmlns="http://www.w3.org/2000/svg">
<path d="M15.4014 41.0372C16.3618 39.6402 17.3295 39.5093 17.6933 39.6184C17.4751 39.3637 16.9948 38.6798 16.8202 37.9813C16.6019 37.1081 16.9294 34.707 17.6933 31.7602C18.4573 28.8134 19.2213 28.5951 21.4042 26.5214C23.587 24.4477 25.5515 25.5391 27.9527 25.6483C30.3538 25.7574 30.2446 25.7574 31.9909 26.5214C33.7372 27.2854 33.8463 27.9402 35.2652 29.9048C36.684 31.8693 36.5749 32.8516 36.7931 34.707C36.9678 36.1913 36.3566 38.0904 36.0291 38.8544L37.8846 39.6184L40.0674 41.0372V43.8749V44.4206C38.976 44.4206 36.6403 44.3115 36.0291 43.8749C35.4179 43.4384 35.2652 42.3106 35.2652 41.8012L34.7194 38.8544C34.5375 38.0177 33.9555 36.1695 33.0823 35.471C31.9909 34.5979 29.0441 34.707 26.7521 34.707C24.9185 34.707 24.2418 33.4701 24.1327 32.8516H23.1504C22.2409 33.4337 20.3346 34.7725 19.9853 35.471C19.6361 36.1695 19.3305 38.527 19.2213 39.6184C19.2941 40.7462 19.3086 43.2856 18.7848 44.4206C18.2609 45.5557 15.0739 44.8936 13.546 44.4206C13.7642 43.8749 14.4409 42.4342 15.4014 41.0372Z" fill="#EDCD28"/>
<path d="M16.59 24.4478C18.5336 24.4478 20.2519 23.2097 20.8657 21.3656L20.9102 21.2312L19.2539 20.6785L19.2094 20.8138C18.8331 21.9428 17.7801 22.7015 16.59 22.7015C15.3999 22.7015 14.3469 21.9428 13.9706 20.8129L13.926 20.6785L12.2697 21.2312L12.3142 21.3647C12.9281 23.2097 14.6464 24.4478 16.59 24.4478Z" fill="black"/>
<path d="M27.0675 44.5298C29.0111 44.5298 30.7294 43.2917 31.3433 41.4477L31.3878 41.3132L29.7314 40.7605L29.6869 40.8958C29.3106 42.0248 28.2576 42.7835 27.0675 42.7835C25.8774 42.7835 24.8244 42.0248 24.4481 40.895L24.4036 40.7605L22.7473 41.3132L22.7918 41.4468C23.4056 43.2917 25.1239 44.5298 27.0675 44.5298Z" fill="black"/>
<path d="M41.9554 19.8062L41.9109 19.9406C41.5346 21.0696 40.4816 21.8283 39.2915 21.8283C38.1014 21.8283 37.0484 21.0696 36.6721 19.9398L36.6276 19.8053L34.9713 20.358L35.0158 20.4916C35.6296 22.3365 37.3479 23.5746 39.2915 23.5746C41.2351 23.5746 42.9534 22.3365 43.5673 20.4925L43.6118 20.358L41.9554 19.8062Z" fill="black"/>
<path d="M52.5967 33.228C52.0553 32.4151 51.3918 31.7061 50.6417 31.1159V14.1194C50.6417 8.25984 45.8744 3.49253 40.0148 3.49253C38.3096 3.49253 36.6995 4.11246 35.4422 5.24666C32.7739 5.36628 30.4531 6.82703 29.1242 8.96446C28.6833 7.77351 27.9961 6.6786 27.0706 5.75395L26.1765 4.85986C26.0037 2.1514 23.751 0 20.9989 0H16.442C13.097 0 9.94412 1.72968 8.1411 4.53418L7.96472 4.60491C5.2484 5.69196 3.49253 8.28429 3.49253 11.211C3.49253 11.9759 3.61565 12.7338 3.8575 13.4611L5.25976 17.6661C5.36715 19.4953 6.87505 20.9552 8.73133 20.9552H8.78285C9.04479 23.3092 10.3484 25.3532 12.2239 26.6114V29.8594L7.53776 30.9011C5.74784 31.2992 4.11595 32.1942 2.81935 33.4908C1.00061 35.3086 0 37.7263 0 40.2968V54.1343H54.1343V38.3052C54.1343 36.4926 53.6025 34.7367 52.5967 33.228ZM52.388 38.3052V42.7835H48.8955V39.291H47.1492V52.388H40.6828C38.9383 49.3093 35.7897 47.3596 32.2579 47.1693C33.3746 46.3398 34.2836 45.2536 34.9018 43.9946L35.0319 44.1247C35.8561 44.9489 36.9519 45.4029 38.1184 45.4029H42.2483L41.1141 42.0003C40.5806 40.4008 39.332 39.195 37.7936 38.685L37.8713 38.451C38.2345 37.364 38.4179 36.2324 38.4179 35.0869C38.4179 34.0618 38.2642 33.0725 37.9918 32.1339C38.4118 32.2439 38.8457 32.3059 39.291 32.3059C40.6505 32.3059 41.9287 31.7768 42.8892 30.8155L43.0987 30.6059L45.8997 30.9561C48.038 31.2232 49.9493 32.4046 51.1438 34.1971C51.9575 35.4178 52.388 36.8384 52.388 38.3052ZM15.7487 34.446C15.7365 34.659 15.7164 34.8703 15.7164 35.0869C15.7164 35.1262 15.7208 35.1654 15.7208 35.2056L12.8281 36.3625L11.6799 31.769L12.8185 31.5157L15.7487 34.446ZM17.99 40.1641H18.3358C18.3358 40.8583 18.4257 41.5306 18.5794 42.1785L17.8678 42.8901C17.3806 43.3773 16.7057 43.6567 16.0159 43.6567H14.308L14.6765 42.5522C15.1524 41.1237 16.4839 40.1641 17.99 40.1641ZM18.3358 37.3448V38.4179H18.0922L17.9193 37.8992C17.6163 36.9903 17.4627 36.0447 17.4627 35.0869C17.4627 30.1833 21.452 26.194 26.3555 26.194H27.7787C32.6823 26.194 36.6716 30.1833 36.6716 35.0869C36.6716 36.0447 36.5179 36.9903 36.2158 37.8983L36.0421 38.4179H35.7985V38.1393C35.7985 35.8867 34.04 33.9754 31.7952 33.7885L26.9597 33.386C26.0412 33.3083 25.3209 32.526 25.3209 31.6039C25.3209 30.833 25.8124 30.1519 26.5433 29.9083L27.3439 29.6411L26.7912 27.9848L25.9914 28.252C24.5455 28.7339 23.5746 30.0803 23.5746 31.6039C23.5746 31.7008 23.579 31.7978 23.5868 31.8929L22.1357 32.3077C19.8987 32.9468 18.3358 35.0188 18.3358 37.3448ZM24.4477 15.7164C25.4108 15.7164 26.194 16.4996 26.194 17.4627C26.194 18.4257 25.4108 19.2089 24.4477 19.2089V15.7164ZM24.3962 20.9552H24.4477C26.2848 20.9552 27.7787 19.525 27.9141 17.7211L27.9403 17.6687V24.4556C27.8861 24.4547 27.8329 24.4477 27.7787 24.4477H26.3555C25.0266 24.4477 23.7588 24.7036 22.5845 25.1506C23.5667 23.9911 24.2198 22.5443 24.3962 20.9552ZM39.291 25.3209C35.9207 25.3209 33.1791 22.5792 33.1791 19.2089V16.3616C33.1791 14.4722 34.1727 12.7722 35.7775 11.8379C36.1818 12.5242 36.7205 13.1337 37.3701 13.6209C38.4214 14.4093 39.7232 14.8433 41.0373 14.8433H43.6567C44.6197 14.8433 45.4029 15.6265 45.4029 16.5895V19.2089C45.4029 22.5792 42.6613 25.3209 39.291 25.3209ZM39.291 27.0671C39.9913 27.0671 40.6679 26.9658 41.314 26.793L41.8353 29.3993L41.6546 29.58C40.392 30.8426 38.19 30.8426 36.9274 29.58L36.7676 29.4202C36.7607 29.4097 36.7545 29.3984 36.7484 29.3879L37.2679 26.7921C37.9141 26.9658 38.5907 27.0671 39.291 27.0671ZM35.7985 40.1641H36.1442C37.6504 40.1641 38.9819 41.1237 39.4578 42.5522L39.8262 43.6567H38.1184C37.4286 43.6567 36.7537 43.3773 36.2665 42.8901L35.5549 42.1785C35.7085 41.5306 35.7985 40.8583 35.7985 40.1641ZM20.0821 37.3448C20.0821 35.7941 21.1237 34.4128 22.615 33.9867L24.1622 33.5449C24.7446 34.4215 25.7059 35.0336 26.8139 35.1262L31.6493 35.5287C32.9975 35.6404 34.0522 36.7877 34.0522 38.1393V40.1641C34.0522 44.0155 30.9185 47.1492 27.0671 47.1492C23.2157 47.1492 20.0821 44.0155 20.0821 40.1641V37.3448ZM31.6878 48.8955C34.4626 48.8955 36.9894 50.2104 38.5934 52.388H15.5409C17.1448 50.2104 19.6717 48.8955 22.4465 48.8955H31.6878ZM35.7985 6.98507H36.1599L36.4158 6.72924C37.3771 5.76792 38.6545 5.2388 40.0148 5.2388C44.9114 5.2388 48.8955 9.22291 48.8955 14.1194V30.0332C48.0276 29.6228 47.0916 29.3451 46.1163 29.2229L43.5161 28.8972L42.966 26.1486C45.4518 24.8284 47.1492 22.2143 47.1492 19.2089V16.5895C47.1492 14.6634 45.5828 13.097 43.6567 13.097H41.0373C40.0986 13.097 39.1679 12.787 38.4179 12.2239C37.3247 11.404 36.6716 10.0987 36.6716 8.73133H34.9253C34.9253 9.23339 34.9882 9.7302 35.1087 10.2087C32.8525 11.4171 31.4328 13.7545 31.4328 16.3616V19.2089C31.4328 22.2143 33.1302 24.8284 35.616 26.1495L35.3261 27.598C33.8243 26.084 31.8694 25.0257 29.6865 24.6285V13.097C29.6865 9.7267 32.4282 6.98507 35.7985 6.98507ZM24.6721 8.86841C25.2065 8.33493 25.6038 7.70278 25.8613 7.0165C27.2007 8.37073 27.9403 10.1624 27.9403 12.0684C27.9403 13.1782 27.6783 14.2888 27.1815 15.2807L27.1702 15.3025C26.5302 14.4975 25.554 13.9701 24.4477 13.9701H23.7431L21.2311 12.9652C20.5335 12.6866 20.0821 12.0204 20.0821 11.2687C20.0821 10.351 20.8286 9.60447 21.7463 9.60447C22.4631 9.60447 23.0979 10.0611 23.3249 10.7422L23.62 11.6266L25.2763 11.0739L24.9812 10.1895C24.8502 9.7983 24.6486 9.44818 24.4015 9.13909L24.6721 8.86841ZM8.61346 6.22631L9.32856 5.93993L9.47961 5.68759C10.9386 3.25679 13.606 1.74627 16.442 1.74627H20.9989C22.9005 1.74627 24.4477 3.29346 24.4477 5.19514C24.4477 6.1163 24.0889 6.98245 23.4375 7.6338L22.9748 8.09657C22.5897 7.94726 22.1776 7.8582 21.7463 7.8582C20.069 7.8582 18.6789 9.07797 18.396 10.6749L16.2158 11.2975C14.0653 11.9122 11.8414 12.2239 9.60447 12.2239C9.12337 12.2239 8.73133 11.8318 8.73133 11.3507C8.73133 10.8696 9.12337 10.4776 9.60447 10.4776H10.4776V8.73133H9.60447C8.1603 8.73133 6.98507 9.90657 6.98507 11.3507C6.98507 12.4876 7.71763 13.448 8.73133 13.8095V13.9701C7.74731 13.9701 6.86021 14.3831 6.22457 15.0406L5.51384 12.9093C5.33135 12.3601 5.2388 11.7882 5.2388 11.211C5.2388 9.00288 6.56334 7.04619 8.61346 6.22631ZM6.98507 17.4627C6.98507 16.4996 7.76827 15.7164 8.73133 15.7164V19.2089C7.76827 19.2089 6.98507 18.4257 6.98507 17.4627ZM10.4776 20.0821V13.9396C12.5819 13.868 14.6695 13.5554 16.6952 12.9765L18.5419 12.4491C18.8754 13.4061 19.6001 14.1937 20.5824 14.5866L22.7015 15.4344V20.0821C22.7015 23.4524 19.9598 26.194 16.5895 26.194C13.2192 26.194 10.4776 23.4524 10.4776 20.0821ZM16.5895 27.9403C17.3527 27.9403 18.0887 27.8259 18.7872 27.6216C17.5159 28.9103 16.5791 30.5239 16.0945 32.3217L13.9701 30.1982V27.4819C14.7909 27.7735 15.6701 27.9403 16.5895 27.9403ZM4.05396 34.7254C5.11569 33.6637 6.45071 32.9311 7.91583 32.6054L9.9738 32.1479L11.6188 38.727L15.8989 37.0147C15.9879 37.4993 16.1049 37.9804 16.2621 38.451L16.3398 38.685C14.8014 39.195 13.5528 40.4008 13.0193 42.0003L11.886 45.4029H16.0159C17.1815 45.4029 18.2782 44.9489 19.1024 44.1247L19.2325 43.9946C19.8507 45.2536 20.7605 46.3398 21.8764 47.1693C18.3437 47.3596 15.196 49.3093 13.4515 52.388H6.98507V40.1641H5.2388V43.6567H1.74627V40.2968C1.74627 38.1926 2.56527 36.2141 4.05396 34.7254ZM1.74627 45.4029H5.2388V52.388H1.74627V45.4029ZM48.8955 52.388V44.5298H52.388V52.388H48.8955Z" fill="black"/>
</svg>
