<svg width="19" height="19" viewBox="0 0 19 19" fill="none" xmlns="http://www.w3.org/2000/svg">
<path d="M18.4089 15.5584C19.197 16.3469 19.197 17.6208 18.4089 18.4094C18.0158 18.8025 17.4997 19 16.9833 19C16.4672 19 15.9512 18.8025 15.558 18.4094L9.5 12.3508L3.44199 18.4094C3.04885 18.8025 2.53279 19 2.01672 19C1.50029 19 0.984229 18.8025 0.591091 18.4094C-0.19703 17.6208 -0.19703 16.3469 0.591091 15.5584L6.64947 9.50023L0.591091 3.44207C-0.19703 2.65356 -0.19703 1.37961 0.591091 0.591105C1.37958 -0.197035 2.6535 -0.197035 3.44199 0.591105L9.5 6.64964L15.558 0.591105C16.3465 -0.197035 17.6204 -0.197035 18.4089 0.591105C19.197 1.37961 19.197 2.65356 18.4089 3.44207L12.3505 9.50023L18.4089 15.5584Z" fill="#9C9C9C"/>
</svg>
