<svg width="21" height="20" viewBox="0 0 21 20" fill="none" xmlns="http://www.w3.org/2000/svg">
<path fill-rule="evenodd" clip-rule="evenodd" d="M14.6249 0H6.54112C3.2558 0 0.583008 2.67279 0.583008 5.95811V14.0419C0.583008 17.3272 3.2558 20 6.54112 20H14.6249C17.9102 20 20.583 17.3272 20.583 14.0419V5.95811C20.583 2.67279 17.9102 0 14.6249 0ZM18.571 14.0419C18.571 16.2212 16.8043 17.988 14.6249 17.988H6.54112C4.36176 17.988 2.59501 16.2212 2.59501 14.0419V5.95811C2.59501 3.77871 4.36176 2.012 6.54112 2.012H14.6249C16.8043 2.012 18.571 3.77871 18.571 5.95811V14.0419ZM10.5828 4.82729C7.73053 4.82729 5.41006 7.14777 5.41006 9.99997C5.41006 12.8522 7.73053 15.1727 10.5828 15.1727C13.435 15.1727 15.7555 12.8522 15.7555 9.99997C15.7555 7.14773 13.435 4.82729 10.5828 4.82729ZM10.5828 13.1607C8.83714 13.1607 7.42206 11.7456 7.42206 10C7.42206 8.25438 8.83718 6.83929 10.5828 6.83929C12.3284 6.83929 13.7435 8.25438 13.7435 10C13.7435 11.7456 12.3284 13.1607 10.5828 13.1607ZM17.0051 4.86612C17.0051 5.55067 16.4501 6.10561 15.7656 6.10561C15.081 6.10561 14.5261 5.55067 14.5261 4.86612C14.5261 4.18157 15.081 3.62664 15.7656 3.62664C16.4501 3.62664 17.0051 4.18157 17.0051 4.86612Z" fill="#CC289E"/>
</svg>
