<svg width="17" height="17" fill="none" xmlns="http://www.w3.org/2000/svg"><path fill-rule="evenodd" clip-rule="evenodd" d="M10.163.826c1.624 0 3.126.63 4.29 1.77a6.2 6.2 0 011.793 4.289.32.32 0 01-.315.315.32.32 0 01-.315-.315 5.292 5.292 0 00-1.6-3.829 5.389 5.389 0 00-3.853-1.6.32.32 0 01-.315-.315.32.32 0 01.315-.315zm1.551 9.476l2.836 2.835c.363.364.363.97 0 1.309l-1.09 1.09c-.34.316-.8.485-1.382.485-.606 0-1.357-.17-2.206-.557-1.55-.679-3.247-1.915-4.822-3.49C3.499 10.4 2.239 8.703 1.56 7.152.833 5.528.81 4.243 1.487 3.565l1.091-1.066a.95.95 0 011.333 0l2.835 2.86a.936.936 0 010 1.308l-.703.703v.024c-.193.29.219 1.309 1.26 2.35 1.043 1.043 2.085 1.43 2.351 1.26l.727-.702a.951.951 0 011.333 0zm1.89 4.265l.534-.533c.12-.121.12-.34 0-.436l-2.86-2.86a.337.337 0 00-.46 0l-1.067.897c-.072.024-.17.024-.266.024-.752 0-1.818-.703-2.593-1.478-.897-.873-1.648-2.084-1.454-2.86l.896-1.066a.311.311 0 00.097-.242.311.311 0 00-.097-.243L3.45 2.935a.337.337 0 00-.46 0l-.533.533 2.835 2.835c-.072.073-.14.146-.206.218a5.91 5.91 0 01-.206.219L2.02 3.904l-.096.097c-.485.485-.412 1.551.194 2.908.654 1.478 1.866 3.126 3.368 4.653 3.344 3.32 6.592 4.532 7.561 3.563l.097-.122-2.835-2.835.436-.436 2.86 2.835zm-3.44-11.075a3.403 3.403 0 013.392 3.393c0 .17.145.315.315.315a.32.32 0 00.315-.315 4.028 4.028 0 00-4.023-4.023.32.32 0 00-.315.315c0 .17.146.315.315.315zm1.356 3.393c0-.751-.605-1.357-1.357-1.357a.28.28 0 01-.29-.291.32.32 0 01.315-.315c1.09 0 1.962.872 1.962 1.963a.32.32 0 01-.315.315.32.32 0 01-.315-.315z" fill="#000000"/></svg>
