<svg width="21" height="23" viewBox="0 0 21 23" fill="none" xmlns="http://www.w3.org/2000/svg">
<path fill-rule="evenodd" clip-rule="evenodd" d="M20.4743 13.2364C21.13 7.71649 20.1592 4.23164 18.4081 2.65545L18.409 2.65453C15.5827 -0.0371743 6.03757 -0.435573 2.65622 2.77543C1.13773 4.34613 0.602867 6.65134 0.544252 9.50516C0.485637 12.3599 0.416032 17.7076 5.39922 19.1583H5.4038L5.39922 21.3738C5.39922 21.3738 5.36533 22.2713 5.93866 22.4517C6.55618 22.6518 6.85533 22.294 8.59138 20.2171L8.93077 19.8113C12.3414 20.1071 14.9608 19.4294 15.2584 19.3305C15.32 19.3099 15.4071 19.287 15.5151 19.2586C16.6172 18.969 19.9004 18.1064 20.4743 13.2364ZM9.26689 18.2525C9.26689 18.2525 7.10821 20.9442 6.43689 21.643C6.21708 21.8702 5.97621 21.8491 5.97987 21.3985C5.97987 21.1027 5.99636 17.7204 5.99636 17.7204C1.9167 16.5513 2.00878 12.265 2.06116 9.82691C2.06302 9.74014 2.06484 9.65571 2.06641 9.57385C2.1122 7.19078 2.54815 5.23909 3.83402 3.92483C6.80048 1.14337 15.1687 1.76524 17.3008 3.76914C19.6733 5.87239 19.1177 11.4699 19.0029 12.6258C18.9916 12.7399 18.9846 12.8107 18.9851 12.8306C18.5027 16.8499 15.8945 17.4797 14.9558 17.7063L14.9558 17.7063L14.9557 17.7064C14.8519 17.7314 14.7686 17.7515 14.7108 17.7708C14.4626 17.8532 12.1592 18.4458 9.26689 18.2525ZM10.4612 4.44779C10.1086 4.44779 10.1086 4.99731 10.4612 5.00188C13.1968 5.02295 15.4499 6.92977 15.4746 10.4274C15.4746 10.7965 16.0149 10.7919 16.0104 10.4229H16.0094C15.9801 6.65409 13.5201 4.46885 10.4612 4.44779ZM14.5953 9.86052C14.5907 10.2296 14.0513 10.2122 14.0595 9.84769C14.1017 8.02788 13.0017 6.60281 10.9136 6.44436C10.5619 6.41872 10.5985 5.86462 10.9511 5.89027C13.3589 6.07069 14.6402 7.78243 14.5953 9.86052ZM13.4827 12.2115C13.0303 11.9496 12.5696 12.1126 12.3791 12.37L11.9807 12.8856C11.7783 13.1475 11.4 13.1127 11.4 13.1127C8.63963 12.3828 7.90145 9.49417 7.90145 9.49417C7.90145 9.49417 7.86756 9.1031 8.12034 8.89337L8.61857 8.48123C8.86768 8.28341 9.02521 7.80716 8.77151 7.33916C8.26049 6.41586 7.876 5.9487 7.61843 5.63575C7.5344 5.53366 7.46388 5.44798 7.40689 5.36823C7.16327 5.06325 6.79692 4.99456 6.41593 5.20063H6.40768C5.61546 5.66405 4.74815 6.53137 5.02565 7.42433C5.10776 7.58759 5.20179 7.81278 5.31559 8.08534C5.85812 9.38462 6.8501 11.7603 9.14244 13.6348C10.4457 14.7072 12.5082 15.8063 13.3838 16.06L13.392 16.0728C14.2548 16.3604 15.0937 15.4592 15.5415 14.6431V14.6367C15.7403 14.242 15.6743 13.8683 15.384 13.6238C14.8693 13.1219 14.0927 12.5678 13.4827 12.2115ZM12.6812 9.38977C12.6354 8.44552 12.2086 7.98576 11.3285 7.93447C10.9722 7.91341 11.0052 7.35931 11.3578 7.38038C12.5154 7.44449 13.1583 8.13138 13.217 9.36413C13.2334 9.73322 12.6977 9.75886 12.6812 9.38977Z" fill="#8E24AA"/>
</svg>
