<svg width="19" height="10" viewBox="0 0 19 10" fill="none" xmlns="http://www.w3.org/2000/svg">
<path fill-rule="evenodd" clip-rule="evenodd" d="M10.1025 9.95813H9.05475C9.05475 9.95813 6.74289 10.0973 4.70708 7.97776C2.48684 5.66591 0.525983 1.07836 0.525983 1.07836C0.525983 1.07836 0.412948 0.777572 0.535739 0.632174C0.67376 0.46869 1.04975 0.458218 1.04975 0.458218L3.55436 0.4418C3.55436 0.4418 3.79042 0.481301 3.95938 0.605283C4.09859 0.707609 4.17665 0.898936 4.17665 0.898936C4.17665 0.898936 4.58143 1.92267 5.11757 2.84884C6.16391 4.65692 6.65127 5.05243 7.00656 4.85872C7.52414 4.57625 7.36898 2.30271 7.36898 2.30271C7.36898 2.30271 7.3785 1.47744 7.10841 1.11001C6.89924 0.825166 6.50468 0.742114 6.33049 0.718793C6.18962 0.699994 6.42092 0.372788 6.72076 0.225962C7.17147 0.00512793 7.96747 -0.00748357 8.90792 0.00227281C9.64062 0.0096503 9.85146 0.0553399 10.138 0.124589C10.8027 0.28509 10.782 0.79939 10.7373 1.90905C10.7239 2.24062 10.7084 2.62535 10.7084 3.06968C10.7084 3.16965 10.7055 3.27621 10.7025 3.38583C10.6869 3.95415 10.6692 4.6048 11.0432 4.84658C11.235 4.97033 11.7043 4.86514 12.8779 2.87216C13.4343 1.92767 13.8515 0.817075 13.8515 0.817075C13.8515 0.817075 13.9426 0.619085 14.0842 0.534131C14.2291 0.447511 14.4245 0.474163 14.4245 0.474163L17.0602 0.457742C17.0602 0.457742 17.8522 0.36327 17.9804 0.720698C18.1149 1.09597 17.6844 1.97217 16.6076 3.40735C15.585 4.77033 15.0881 5.27129 15.1348 5.71501C15.1689 6.03849 15.4919 6.33154 16.1107 6.90596C17.4081 8.11022 17.7539 8.74255 17.8361 8.89283C17.8427 8.90498 17.8477 8.91398 17.8512 8.91988C18.4319 9.8827 17.2073 9.95813 17.2073 9.95813L14.8664 9.99073C14.8664 9.99073 14.3633 10.0904 13.7013 9.63569C13.3551 9.39807 13.0166 9.01002 12.6941 8.6403C12.2011 8.07511 11.7455 7.55273 11.3566 7.67602C10.7041 7.88305 10.7246 9.28897 10.7246 9.28897C10.7246 9.28897 10.7293 9.58928 10.5806 9.7492C10.419 9.92339 10.1025 9.95813 10.1025 9.95813Z" fill="#5EA2D4"/>
</svg>
