<svg width="21" height="21" viewBox="0 0 21 21" fill="none" xmlns="http://www.w3.org/2000/svg">
<path fill-rule="evenodd" clip-rule="evenodd" d="M0.811478 10.4501C0.795454 5.16217 4.96368 0.763308 10.2457 0.51181C16.0508 0.235345 20.8252 4.95167 20.6448 10.7365C20.4766 16.1332 15.975 20.4199 10.5763 20.3375C9.04652 20.3141 7.60105 19.9439 6.31415 19.3028L1.3051 20.4896C1.0304 20.5546 0.781009 20.3125 0.837977 20.036L1.89108 14.9241C1.20518 13.5809 0.816357 12.0607 0.811478 10.4501ZM10.7306 18.1862C12.8052 18.1862 14.7556 17.3783 16.2225 15.9114C17.6764 14.4576 18.4974 12.4754 18.4974 10.4193C18.4974 8.34473 17.6895 6.39436 16.2226 4.92742C14.7556 3.46052 12.8053 2.65265 10.7308 2.6526C8.67473 2.6526 6.6925 3.47363 5.23866 4.92746C3.77172 6.39445 2.96384 8.34483 2.96384 10.4194C2.96384 11.6619 3.24787 12.8482 3.80802 13.9452L4.15169 14.6182L3.50525 17.7563L6.57631 17.0287L7.27389 17.3762C8.35292 17.9137 9.51589 18.1862 10.7306 18.1862ZM13.623 12.0188L15.5444 12.5705C16.0046 12.7027 16.2071 13.2396 15.9507 13.644C15.5745 14.237 14.9784 14.9612 14.2325 15.1419C12.9175 15.4605 10.8977 15.1495 8.37559 12.7954C6.19242 10.7578 5.6151 9.06086 5.75146 7.71469C5.82881 6.95116 6.46506 6.26195 7.0013 5.80841C7.36688 5.49923 7.92646 5.6267 8.12008 6.0646L8.92843 7.89286C9.03471 8.13321 9.0008 8.41245 8.84008 8.62038L8.42988 9.15107C8.25692 9.37487 8.23363 9.68152 8.37449 9.9268C8.86275 10.7771 10.7747 12.477 11.6836 12.8448C11.9458 12.9509 12.2464 12.8861 12.4445 12.6842L12.9144 12.2055C13.0984 12.018 13.3704 11.9463 13.623 12.0188Z" fill="#7AD06D"/>
</svg>
